<svg xmlns="http://www.w3.org/2000/svg" width="500" height="500" style="width:100%;height:100%;transform:translate3d(0,0,0);content-visibility:visible" viewBox="0 0 500 500"><defs><clipPath id="g"><path d="M0 0h500v500H0z"/></clipPath><clipPath id="l"><path d="M0 0h500v500H0z"/></clipPath><clipPath id="j"><path d="M0 0h500v500H0z"/></clipPath><clipPath id="h"><path d="M0 0h500v500H0z"/></clipPath><filter id="a" width="100%" height="100%" x="0%" y="0%" filterUnits="objectBoundingBox"><feComponentTransfer in="SourceGraphic"><feFuncA tableValues="1.0 0.0" type="table"/></feComponentTransfer></filter><filter id="c" width="100%" height="100%" x="0%" y="0%" filterUnits="objectBoundingBox"><feComponentTransfer in="SourceGraphic"><feFuncA tableValues="1.0 0.0" type="table"/></feComponentTransfer></filter><filter id="e" width="100%" height="100%" x="0%" y="0%" filterUnits="objectBoundingBox"><feComponentTransfer in="SourceGraphic"><feFuncA tableValues="1.0 0.0" type="table"/></feComponentTransfer></filter><mask id="m" mask-type="alpha"><g filter="url(#a)"><path fill="#fff" d="M0 0h500v500H0z" opacity="0"/><use xmlns:ns1="http://www.w3.org/1999/xlink" ns1:href="#b"/></g></mask><mask id="k" mask-type="alpha"><g filter="url(#c)"><path fill="#fff" d="M0 0h500v500H0z" opacity="0"/><use xmlns:ns2="http://www.w3.org/1999/xlink" ns2:href="#d"/></g></mask><mask id="i" mask-type="alpha"><g filter="url(#e)"><path fill="#fff" d="M0 0h500v500H0z" opacity="0"/><use xmlns:ns3="http://www.w3.org/1999/xlink" ns3:href="#f"/></g></mask><g id="b" class="primary design" style="display:none"><path fill-opacity="0" stroke-linecap="round" stroke-linejoin="round"/><path/></g><g id="d" class="primary design" style="display:none"><path fill-opacity="0" stroke-linecap="round" stroke-linejoin="round"/><path/></g><g id="f" class="primary design" style="display:none"><path fill-opacity="0" stroke-linecap="round" stroke-linejoin="round"/><path/></g></defs><g clip-path="url(#g)"><g clip-path="url(#h)" opacity="0" style="display:block"><g class="primary design" mask="url(#i)" style="display:none"><path/><path fill="none"/></g><g class="primary design" style="display:none"><path fill="none"/><path/></g><g class="primary design" style="display:none"><path/><path fill="none"/></g><path fill="#00AB54" d="M8.25-5H-.536l-1.293-2.585A.75.75 0 0 0-2.5-8h-6.75a.75.75 0 0 0-.75.75v13.5C-10 7.215-9.215 8-8.25 8h16.5C9.215 8 10 7.215 10 6.25v-9.5C10-4.215 9.215-5 8.25-5z" class="primary design" opacity="1" style="display:block" transform="translate(249.998 250.003) scale(20.83)"/></g><g clip-path="url(#j)" style="display:block"><path fill="#00AB54" d="M8.25-5H-.536l-1.293-2.585A.75.75 0 0 0-2.5-8h-6.75a.75.75 0 0 0-.75.75v13.5C-10 7.215-9.215 8-8.25 8h16.5C9.215 8 10 7.215 10 6.25v-9.5C10-4.215 9.215-5 8.25-5z" class="primary design" style="display:block" transform="translate(249.998 250.003) scale(20.83)"/><g class="primary design" mask="url(#k)" style="display:none"><path/><path fill="none"/></g><g class="primary design" style="display:none"><path fill="none"/><path/></g><g class="primary design" style="display:none"><path/><path fill="none"/></g></g><g clip-path="url(#l)" opacity="0" style="display:block"><g class="primary design" mask="url(#m)" style="display:none"><path/><path fill="none"/></g><g class="primary design" style="display:none"><path fill="none"/><path/></g><g class="primary design" style="display:none"><path/><path fill="none"/></g><path fill="none" class="primary design" style="display:none"/></g><g class="com" style="display:none"><path/><path/><path/><path/><path/><path/><path/><path/><path/><path/><path/><path/></g></g></svg>